<svg xmlns="http://www.w3.org/2000/svg" xmlns:xlink="http://www.w3.org/1999/xlink" width="22cm" height="23cm" viewBox="1 1 439 446"><style type="text/css">svg{background-color:transparent!important}polygon,rect{fill-opacity:1}polygon.filled,text{fill:#000}line,polygon,polyline,rect{fill:none;stroke-opacity:1;stroke:#000}text{fill-opacity:1;stroke:none;font-family:sans-serif;font-style:normal;font-weight:400;text-anchor:start}@media (prefers-color-scheme:dark){line,polygon,polyline,rect{stroke:#fff}polygon.filled,text{fill:#fff}}</style><g id="Background"><rect style="stroke-width:1.8;stroke-dasharray:3" width="211.607" height="207.375" x="227.504" y="1.91" rx="0" ry="0"/><rect style="stroke-width:1.2" width="68.422" height="21.917" x="230.966" y="5.625" rx="0" ry="0"/><rect style="stroke-width:1.2" width="68.422" height="21.917" x="5.279" y="5.704" rx="0" ry="0"/><text font-size="6.773" style="font-weight:700" x="17.065" y="19.007"><tspan x="17.065" y="19.007">Logger flow</tspan></text><g><rect width="44.45" height="25.933" x="81.553" y="106.469" rx="0" ry="0"/><text font-size="6.773" style="text-anchor:middle" x="103.778" y="117.256"><tspan x="103.778" y="117.256">Create</tspan> <tspan x="103.778" y="125.723" style="font-family:monospace">LogRecord</tspan></text></g><g><line x1="103.778" x2="103.778" y1="82.873" y2="102.351"/><polygon fill-rule="evenodd" points="103.778 105.351 101.778 101.351 103.778 102.351 105.778 101.351"/></g><g><line x1="103.774" x2="103.778" y1="3.656" y2="30.375"/><polygon fill-rule="evenodd" points="103.778 33.376 101.778 29.376 103.778 30.375 105.778 29.375"/></g><text font-size="6.773" style="text-anchor:middle" x="144.365" y="10.46"><tspan x="143.798" y="10.46">Logging call in user</tspan> <tspan x="143.798" y="18.927">code, e.g.</tspan></text><text font-size="6.773" style="font-family:monospace" x="110.837" y="27.47"><tspan x="111.893" y="27.47">logger.info(...)</tspan></text><g><line x1="155.62" x2="183.943" y1="58.683" y2="58.692"/><polygon fill-rule="evenodd" points="186.943 58.693 182.942 60.692 183.943 58.692 182.943 56.692"/></g><g><rect width="24.4" height="17.467" x="188.061" y="49.96" rx="6" ry="6"/><text font-size="6.773" style="text-anchor:middle" x="200.261" y="60.748"><tspan x="200.261" y="60.748">Stop</tspan></text></g><g><polygon fill-rule="evenodd" points="103.778 162.482 169.307 193.042 103.778 223.603 38.249 193.042"/><text font-size="6.773" style="text-anchor:middle" x="103.778" y="186.629"><tspan x="103.778" y="188.741">Does a filter attached</tspan> <tspan x="103.778" y="197.208">to logger reject the</tspan> <tspan x="103.778" y="205.675">record?</tspan></text></g><g><line x1="103.778" x2="103.778" y1="132.402" y2="158.364"/><polygon fill-rule="evenodd" points="103.778 161.364 101.778 157.364 103.778 158.364 105.778 157.364" class="filled"/></g><g><rect width="57.15" height="34.4" x="75.203" y="249.478" rx="0" ry="0"/><text font-size="6.773" style="text-anchor:middle" x="103.778" y="260.265"><tspan x="103.778" y="260.265">Pass record to</tspan> <tspan x="103.778" y="268.732">handlers of</tspan> <tspan x="103.778" y="277.198">current logger</tspan></text></g><g><polygon fill-rule="evenodd" points="103.778 326.569 158.193 352.399 103.778 378.229 49.364 352.399"/><text font-size="6.773" style="text-anchor:middle" x="103.778" y="350.22"><tspan x="103.778" y="351.276">Is propagate true for</tspan> <tspan x="103.778" y="359.742">current logger?</tspan></text></g><g><polygon fill-rule="evenodd" points="103.778 399.9 150.573 422.994 103.778 446.087 56.984 422.994"/><text font-size="6.773" style="text-anchor:middle" x="103.778" y="420.814"><tspan x="103.778" y="422.926">Is there a parent</tspan> <tspan x="103.778" y="431.393">logger?</tspan></text></g><g><rect width="63.9" height="26.591" x="2.439" y="295.984" rx="0" ry="0"/><text font-size="6.773" style="text-anchor:middle" x="34.389" y="307.1"><tspan x="34.389" y="307.1">Set current</tspan> <tspan x="34.389" y="315.566">logger to parent</tspan></text></g><g><polygon fill-rule="evenodd" points="278.422 240.202 330.96 266.686 278.422 293.169 225.885 266.686"/><text font-size="6.773" style="text-anchor:middle" x="278.422" y="264.506"><tspan x="278.422" y="266.618">At least one handler</tspan> <tspan x="278.422" y="275.085">in hierarchy?</tspan></text></g><g><rect width="57.75" height="25.933" x="298.963" y="312.257" rx="0" ry="0"/><text x="327.838" y="323.044" font-size="6.773"><tspan x="301" y="324.1">Use</tspan> <tspan x="315" y="324.1" style="font-family:monospace">lastResort</tspan> <tspan x="316" y="332.567">handler</tspan></text></g><g><polygon fill-rule="evenodd" points="320.041 35.731 373.377 60.854 320.041 85.977 266.704 60.854"/><text font-size="6.773" style="text-anchor:middle" x="320.041" y="58.674"><tspan x="320.041" y="58.674">Handler enabled for</tspan> <tspan x="320.041" y="67.141">level of record?</tspan></text></g><g><polygon fill-rule="evenodd" points="320.041 105.448 386.002 135.748 320.041 166.047 254.08 135.748"/><text font-size="6.773" style="text-anchor:middle" x="320.041" y="129.335"><tspan x="320.041" y="132.508">Does a filter attached</tspan> <tspan x="320.041" y="140.97">to handler reject the</tspan> <tspan x="320.041" y="149.436">record?</tspan></text></g><g><rect width="24.4" height="17.467" x="409.532" y="52.444" rx="6" ry="6"/><text font-size="6.773" style="text-anchor:middle" x="421.732" y="63.231"><tspan x="421.732" y="63.231">Stop</tspan></text></g><g><rect width="97.9" height="17.467" x="271.091" y="185.519" rx="6" ry="6"/><text font-size="6.773" style="text-anchor:middle" x="320.041" y="196.306"><tspan x="320.041" y="196.306">Emit (includes formatting)</tspan></text></g><text font-size="6.773" style="font-weight:700" x="241.002" y="18.928"><tspan x="241.002" y="18.928">Handler flow</tspan></text><g><polygon fill-rule="evenodd" points="103.778 34.493 155.62 58.683 103.778 82.873 51.937 58.683"/><text font-size="6.773" style="text-anchor:middle" x="103.778" y="56.504"><tspan x="103.778" y="57.56">Logger enabled for</tspan> <tspan x="103.778" y="66.026">level of call?</tspan></text></g><g><line x1="103.778" x2="103.778" y1="223.603" y2="245.36"/><polygon fill-rule="evenodd" points="103.778 248.36 101.778 244.36 103.778 245.36 105.778 244.36" class="filled"/></g><g><line x1="103.778" x2="103.778" y1="283.878" y2="322.451"/><polygon fill-rule="evenodd" points="103.778 325.451 101.778 321.451 103.778 322.451 105.778 321.451" class="filled"/></g><g><line x1="103.778" x2="103.778" y1="378.229" y2="395.782"/><polygon fill-rule="evenodd" points="103.778 398.782 101.778 394.782 103.778 395.782 105.778 394.782" class="filled"/></g><g><polyline points="56.984 422.994 34.389 422.994 34.389 326.693"/><polygon fill-rule="evenodd" points="34.389 323.693 36.389 327.693 34.389 326.693 32.389 327.693" class="filled"/></g><g><polyline points="34.389 295.984 34.389 266.678 71.085 266.678"/><polygon fill-rule="evenodd" points="74.085 266.678 70.085 268.678 71.085 266.678 70.085 264.678" class="filled"/></g><g><polyline points="150.573 422.994 200.261 422.994 200.261 71.545"/><polygon fill-rule="evenodd" points="200.261 68.545 202.261 72.545 200.261 71.545 198.261 72.545" class="filled"/></g><g><line style="stroke-dasharray:5" x1="132.353" x2="221.767" y1="266.678" y2="266.685"/><polygon fill-rule="evenodd" points="224.767 266.686 220.766 268.685 221.767 266.685 220.767 264.685" class="filled"/></g><g><polyline style="stroke-dasharray:5" points="278.422 293.169 278.422 325.224 294.845 325.224"/><polygon fill-rule="evenodd" points="297.845 325.224 293.845 327.224 294.845 325.224 293.845 323.224" class="filled"/></g><g><polyline points="169.307 193.042 200.261 193.042 200.261 71.545"/><polygon fill-rule="evenodd" points="200.261 68.545 202.261 72.545 200.261 71.545 198.261 72.545" class="filled"/></g><g><polyline points="158.193 352.399 200.261 352.399 200.261 71.545"/><polygon fill-rule="evenodd" points="200.261 68.545 202.261 72.545 200.261 71.545 198.261 72.545" class="filled"/></g><g><line x1="319.981" x2="320.033" y1="4.273" y2="31.613"/><polygon fill-rule="evenodd" points="320.039 34.613 318.031 30.616 320.033 31.613 322.031 30.609" class="filled"/></g><g><line x1="320.041" x2="320.041" y1="85.977" y2="101.33"/><polygon fill-rule="evenodd" points="320.041 104.33 318.041 100.33 320.041 101.33 322.041 100.33" class="filled"/></g><g><line x1="320.041" x2="320.041" y1="166.047" y2="181.401"/><polygon fill-rule="evenodd" points="320.041 184.401 318.041 180.401 320.041 181.401 322.041 180.401" class="filled"/></g><g><polyline points="386.002 135.748 421.732 135.748 421.732 74.028"/><polygon fill-rule="evenodd" points="421.732 71.028 423.732 75.028 421.732 74.028 419.732 75.028" class="filled"/></g><g><line x1="373.377" x2="405.415" y1="60.854" y2="61.14"/><polygon fill-rule="evenodd" points="408.414 61.167 404.397 63.131 405.415 61.14 404.433 59.131" class="filled"/></g><text x="164.96" y="55.565" font-size="6.773"><tspan x="164.96" y="55.565">No</tspan></text><text x="106.571" y="97.845" font-size="6.773"><tspan x="106.571" y="97.845">Yes</tspan></text><text x="173.856" y="188.452" font-size="6.773"><tspan x="173.856" y="188.452">Yes</tspan></text><text x="107.446" y="239.221" font-size="6.773"><tspan x="107.446" y="239.221">No</tspan></text><text x="174.731" y="349.418" font-size="6.773"><tspan x="174.731" y="349.418">No</tspan></text><text x="106.571" y="390.507" font-size="6.773"><tspan x="106.571" y="390.507">Yes</tspan></text><text x="39.472" y="417.667" font-size="6.773"><tspan x="39.472" y="417.667">Yes</tspan></text><text x="174.731" y="417.667" font-size="6.773"><tspan x="174.731" y="417.667">No</tspan></text><text x="281.451" y="313.406" font-size="6.773"><tspan x="281.451" y="313.406">No</tspan></text><text x="333.909" y="263.96" font-size="6.773"><tspan x="333.909" y="263.96">Yes</tspan></text><text x="385.766" y="56.91" font-size="6.773"><tspan x="385.766" y="56.91">No</tspan></text><text x="397.102" y="130.471" font-size="6.773"><tspan x="397.102" y="130.471">Yes</tspan></text><text x="323.563" y="178.785" font-size="6.773"><tspan x="323.563" y="178.785">No</tspan></text><text x="323.75" y="99.004" font-size="6.773"><tspan x="323.75" y="99.004">Yes</tspan></text><text font-size="6.773" style="text-anchor:middle" x="355.762" y="18.245"><tspan x="355.762" y="18.245">Record passed</tspan> <tspan x="355.762" y="26.712">to handler</tspan></text><line style="stroke-dasharray:5" x1="330.96" x2="377.733" y1="266.686" y2="267.908"/><g><polyline style="fill:none;stroke-opacity:1;stroke-dasharray:5" points="356.713 325.224 377.733 325.224 377.733 214.711"/><polygon fill-rule="evenodd" points="377.733 211.711 379.733 215.711 377.733 214.711 375.733 215.711" class="filled"/></g></g></svg>