<?xml-stylesheet href="lifecycle.dot.css" type="text/css"?><svg xmlns="http://www.w3.org/2000/svg" xmlns:xlink="http://www.w3.org/1999/xlink" width="620" height="845pt" viewBox="0 0 465.3 845"><g id="life_events_graph" class="graph" transform="scale(1 1) rotate(0) translate(4 841)"><title>Life Events</title><polygon fill="#fff" stroke="none" points="-4 4 -4 -841 461.3 -841 461.3 4 -4 4"/><g id="life_events_graph_node2" class="node"><title>tp_new</title><g id="a_life_events_graph_node2"><a target="_top" xlink:href="typeobj.html#c.PyTypeObject.tp_new" xlink:title="tp_new"><ellipse cx="192.8" cy="-772.5" fill="none" stroke="#000" rx="38.8" ry="18"/><text x="192.8" y="-768.23" font-family="monospace,monospace" font-size="12" text-anchor="middle">tp_new</text></a></g></g><g id="life_events_graph_edge1" class="edge"><title>start-&gt;tp_new</title><g id="a_life_events_graph_edge1"><a xlink:title="start to tp_new: type call"><path fill="none" stroke="#000" d="M192.8,-822.95C192.8,-817.85 192.8,-810.09 192.8,-802.22"/><polygon fill="#000" stroke="#000" points="196.3 -802.42 192.8 -792.42 189.3 -802.42 196.3 -802.42"/></a></g><g id="a_life_events_graph_edge1-label"><a xlink:title="start to tp_new: type call"><text x="192.8" y="-802.35" font-family="serif,serif" font-size="12" font-style="italic" text-anchor="start">type call</text></a></g></g><g id="life_events_graph_node3" class="node"><title>tp_alloc</title><g id="a_life_events_graph_node3"><a target="_top" xlink:href="typeobj.html#c.PyTypeObject.tp_alloc" xlink:title="tp_alloc"><ellipse cx="373.8" cy="-772.5" fill="none" stroke="#000" rx="48.34" ry="18"/><text x="373.8" y="-768.23" font-family="monospace,monospace" font-size="12" text-anchor="middle">tp_alloc</text></a></g></g><g id="life_events_graph_edge2" class="edge"><title>tp_new-&gt;tp_alloc</title><g id="a_life_events_graph_edge2"><a xlink:title="tp_new to tp_alloc: direct call"><path fill="none" stroke="#000" d="M232.07,-772.5C256,-772.5 287.05,-772.5 313.98,-772.5"/><polygon fill="none" stroke="#000" points="313.73 -776 323.73 -772.5 313.73 -769 313.73 -776"/></a></g><g id="a_life_events_graph_edge2-label"><a xlink:title="tp_new to tp_alloc: direct call"><text x="240.65" y="-778.35" font-family="serif,serif" font-size="12" font-style="italic" text-anchor="start">direct call</text></a></g></g><g id="life_events_graph_node4" class="node"><title>tp_init</title><g id="a_life_events_graph_node4"><a target="_top" xlink:href="typeobj.html#c.PyTypeObject.tp_init" xlink:title="tp_init"><ellipse cx="192.8" cy="-717.5" fill="none" stroke="#000" rx="43.57" ry="18"/><text x="192.8" y="-713.23" font-family="monospace,monospace" font-size="12" text-anchor="middle">tp_init</text></a></g></g><g id="life_events_graph_edge3" class="edge"><title>tp_new-&gt;tp_init</title><g id="a_life_events_graph_edge3"><a xlink:title="tp_new to tp_init"><path fill="none" stroke="#000" d="M192.8,-754.15C192.8,-751.83 192.8,-749.42 192.8,-746.98"/><polygon fill="#000" stroke="#000" points="196.3 -747.23 192.8 -737.23 189.3 -747.23 196.3 -747.23"/></a></g></g><g id="life_events_graph_node5" class="node"><title>reachable</title><polygon fill="none" stroke="#000" points="230.8 -680.5 154.8 -680.5 154.8 -644.5 230.8 -644.5 230.8 -680.5"/><text x="192.8" y="-658.23" font-family="serif,serif" font-size="12" font-style="italic" text-anchor="middle">reachable</text></g><g id="life_events_graph_edge4" class="edge"><title>tp_init-&gt;reachable</title><g id="a_life_events_graph_edge4"><a xlink:title="tp_init to reachable"><path fill="none" stroke="#000" d="M186.44,-699.44C186.24,-697.12 186.11,-694.69 186.07,-692.24"/><polygon fill="#000" stroke="#000" points="189.56 -692.51 186.37 -682.41 182.56 -692.29 189.56 -692.51"/></a></g></g><g id="life_events_graph_edge7" class="edge"><title>reachable-&gt;tp_init</title><g id="a_life_events_graph_edge7"><a xlink:title="reachable to tp_init"><path fill="none" stroke="#000" d="M199.18,-680.89C199.37,-683.22 199.49,-685.65 199.53,-688.11"/><polygon fill="#000" stroke="#000" points="196.04 -687.81 199.2 -697.93 203.04 -688.05 196.04 -687.81"/></a></g></g><g id="life_events_graph_node6" class="node"><title>tp_traverse</title><g id="a_life_events_graph_node6"><a target="_top" xlink:href="typeobj.html#c.PyTypeObject.tp_traverse" xlink:title="tp_traverse"><ellipse cx="136.8" cy="-565.75" fill="none" stroke="#000" rx="62.65" ry="18"/><text x="136.8" y="-561.48" font-family="monospace,monospace" font-size="12" text-anchor="middle">tp_traverse</text></a></g></g><g id="life_events_graph_edge5" class="edge"><title>reachable-&gt;tp_traverse</title><g id="a_life_events_graph_edge5"><a xlink:title="tp_traverse to reachable: not in a cyclic isolate"><path fill="none" stroke="#000" d="M143.43,-658.77C108.3,-655.68 65.38,-649.16 54.05,-635.5 41.91,-620.88 42.8,-608.07 54.05,-592.75 60.55,-583.89 70.07,-577.97 80.37,-574.03"/><polygon fill="#000" stroke="#000" points="142.76 -662.23 153.01 -659.54 143.32 -655.25 142.76 -662.23"/></a></g><g id="a_life_events_graph_edge5-label"><a xlink:title="tp_traverse to reachable: not in a cyclic isolate"><text x="54.05" y="-624.1" font-family="serif,serif" font-size="12" font-style="italic" text-anchor="start">not in a</text><text x="59.67" y="-609.85" font-family="serif,serif" font-size="12" font-style="italic" text-anchor="start">cyclic</text><text x="57.05" y="-595.6" font-family="serif,serif" font-size="12" font-style="italic" text-anchor="start">isolate</text></a></g></g><g id="life_events_graph_edge6" class="edge"><title>reachable-&gt;tp_traverse</title><g id="a_life_events_graph_edge6"><a xlink:title="reachable to tp_traverse: periodic cyclic isolate detection"><path fill="none" stroke="#000" d="M154.41,-650.07C147.94,-646.44 142.04,-641.69 138.05,-635.5 130.52,-623.82 129.57,-608.56 130.79,-595.38"/><polygon fill="#000" stroke="#000" points="134.25 -595.91 132.17 -585.52 127.31 -594.94 134.25 -595.91"/></a></g><g id="a_life_events_graph_edge6-label"><a xlink:title="reachable to tp_traverse: periodic cyclic isolate detection"><text x="154.17" y="-624.1" font-family="serif,serif" font-size="12" font-style="italic" text-anchor="start">periodic</text><text x="138.05" y="-609.85" font-family="serif,serif" font-size="12" font-style="italic" text-anchor="start">cyclic isolate</text><text x="151.17" y="-595.6" font-family="serif,serif" font-size="12" font-style="italic" text-anchor="start">detection</text></a></g></g><g id="life_events_graph_node7" class="node"><title>finalized?</title><g id="a_life_events_graph_node7"><a xlink:title="marked as finalized?"><polygon fill="none" stroke="#000" points="191.8 -487 112.05 -450.5 191.8 -414 271.55 -450.5 191.8 -487"/><text x="159.92" y="-453.35" font-family="serif,serif" font-size="12" font-style="italic" text-anchor="start">marked as</text><text x="162.92" y="-439.1" font-family="serif,serif" font-size="12" font-style="italic" text-anchor="start">finalized?</text></a></g></g><g id="life_events_graph_edge10" class="edge"><title>reachable-&gt;finalized?</title><g id="a_life_events_graph_edge10"><a xlink:title="reachable to finalized?: no refs"><path fill="none" stroke="#000" d="M227.72,-644.32C230.51,-641.73 232.96,-638.8 234.8,-635.5 244.04,-618.9 235.48,-611.74 234.8,-592.75 233.24,-549.67 243.64,-536.1 227.8,-496 226.37,-492.38 224.53,-488.82 222.45,-485.4"/><polygon fill="#000" stroke="#000" points="225.47 -483.62 216.91 -477.39 219.72 -487.61 225.47 -483.62"/></a></g><g id="a_life_events_graph_edge10-label"><a xlink:title="reachable to finalized?: no refs"><text x="236.45" y="-561.48" font-family="serif,serif" font-size="12" font-style="italic" text-anchor="start">no refs</text></a></g></g><g id="life_events_graph_node8" class="node"><title>tp_finalize</title><g id="a_life_events_graph_node8"><a target="_top" xlink:href="typeobj.html#c.PyTypeObject.tp_finalize" xlink:title="tp_finalize"><ellipse cx="122.8" cy="-321" fill="none" stroke="#000" rx="62.65" ry="18"/><text x="122.8" y="-316.73" font-family="monospace,monospace" font-size="12" text-anchor="middle">tp_finalize</text></a></g></g><g id="life_events_graph_edge8" class="edge"><title>reachable-&gt;tp_finalize</title><g id="a_life_events_graph_edge8"><a xlink:title="tp_finalize to reachable: resurrected (maybe remove finalized mark)"><path fill="none" stroke="#000" d="M142.86,-659.6C103.8,-656.96 53.97,-650.63 40.8,-635.5 -37.32,-545.75 69.61,-390.31 109.14,-338.99"/><polygon fill="#000" stroke="#000" points="142.62 -663.09 152.82 -660.2 143.05 -656.11 142.62 -663.09"/></a></g><g id="a_life_events_graph_edge8-label"><a xlink:title="tp_finalize to reachable: resurrected (maybe remove finalized mark)"><text x="33.68" y="-527.35" font-family="serif,serif" font-size="12" font-style="italic" text-anchor="start">resurrected</text><text x="22.43" y="-513.1" font-family="serif,serif" font-size="12" font-style="italic" text-anchor="start">(maybe remove</text><text x="23.18" y="-498.85" font-family="serif,serif" font-size="12" font-style="italic" text-anchor="start">finalized mark)</text></a></g></g><g id="life_events_graph_node10" class="node"><title>uncollectable</title><g id="a_life_events_graph_node10"><a xlink:title="uncollectable (leaked)"><polygon fill="none" stroke="#000" points="371.92 -159.75 275.67 -159.75 275.67 -123.25 371.92 -123.25 371.92 -159.75"/><text x="283.67" y="-144.35" font-family="serif,serif" font-size="12" font-style="italic" text-anchor="start">uncollectable</text><text x="299.42" y="-130.1" font-family="serif,serif" font-size="12" font-style="italic" text-anchor="start">(leaked)</text></a></g></g><g id="life_events_graph_edge19" class="edge"><title>reachable-&gt;uncollectable</title><g id="a_life_events_graph_edge19"><a xlink:title="reachable to uncollectable: cyclic isolate (no GC support)"><path fill="none" stroke="#000" d="M231.2,-652.03C270.79,-639.69 326.8,-613.9 326.8,-566.75 326.8,-566.75 326.8,-566.75 326.8,-237.5 326.8,-215.3 325.97,-190.2 325.18,-171.37"/><polygon fill="#000" stroke="#000" points="328.68 -171.35 324.75 -161.52 321.69 -171.66 328.68 -171.35"/></a></g><g id="a_life_events_graph_edge19-label"><a xlink:title="reachable to uncollectable: cyclic isolate (no GC support)"><text x="335.05" y="-393.6" font-family="serif,serif" font-size="12" font-style="italic" text-anchor="start">cyclic</text><text x="332.42" y="-379.35" font-family="serif,serif" font-size="12" font-style="italic" text-anchor="start">isolate</text><text x="331.3" y="-365.1" font-family="serif,serif" font-size="12" font-style="italic" text-anchor="start">(no GC</text><text x="326.8" y="-350.85" font-family="serif,serif" font-size="12" font-style="italic" text-anchor="start">support)</text></a></g></g><g id="life_events_graph_node11" class="node"><title>tp_dealloc</title><g id="a_life_events_graph_node11"><a target="_top" xlink:href="typeobj.html#c.PyTypeObject.tp_dealloc" xlink:title="tp_dealloc"><ellipse cx="200.8" cy="-86.25" fill="none" stroke="#000" rx="57.88" ry="18"/><text x="200.8" y="-81.97" font-family="monospace,monospace" font-size="12" text-anchor="middle">tp_dealloc</text></a></g></g><g id="life_events_graph_edge20" class="edge"><title>reachable-&gt;tp_dealloc</title><path fill="none" stroke="#000" d="M231.23,-661.18C293.08,-658.43 407.8,-643.03 407.8,-566.75 407.8,-566.75 407.8,-566.75 407.8,-140.5 407.8,-111.22 329.12,-97.8 268.77,-91.82"/><polygon fill="#000" stroke="#000" points="269.15 -88.34 258.87 -90.89 268.5 -95.31 269.15 -88.34"/><g id="a_life_events_graph_edge20-label"><a xlink:title="reachable to tp_dealloc: no refs"><text x="407.8" y="-316.73" font-family="serif,serif" font-size="12" font-style="italic" text-anchor="start">no refs</text></a></g></g><g id="life_events_graph_edge9" class="edge"><title>tp_traverse-&gt;finalized?</title><g id="a_life_events_graph_edge9"><a xlink:title="tp_traverse to finalized?: cyclic isolate"><path fill="none" stroke="#000" d="M145.15,-547.55C152.4,-532.62 163.18,-510.43 172.55,-491.13"/><polygon fill="#000" stroke="#000" points="175.7 -492.66 176.92 -482.14 169.4 -489.61 175.7 -492.66"/></a></g><g id="a_life_events_graph_edge9-label"><a xlink:title="tp_traverse to finalized?: cyclic isolate"><text x="171.85" y="-520.23" font-family="serif,serif" font-size="12" font-style="italic" text-anchor="start">cyclic</text><text x="169.22" y="-505.98" font-family="serif,serif" font-size="12" font-style="italic" text-anchor="start">isolate</text></a></g></g><g id="life_events_graph_edge11" class="edge"><title>finalized?-&gt;tp_finalize</title><g id="a_life_events_graph_edge11"><a xlink:title="finalized? to tp_finalize: no (mark as finalized)"><path fill="none" stroke="#000" d="M172.89,-422.6C169.14,-416.89 165.34,-410.82 162.05,-405 151.89,-387.08 141.99,-366.11 134.68,-349.73"/><polygon fill="#000" stroke="#000" points="137.89 -348.35 130.66 -340.61 131.48 -351.17 137.89 -348.35"/></a></g><g id="a_life_events_graph_edge11-label"><a xlink:title="finalized? to tp_finalize: no (mark as finalized)"><text x="170.67" y="-379.35" font-family="serif,serif" font-size="12" font-style="italic" text-anchor="start">no (mark</text><text x="162.05" y="-365.1" font-family="serif,serif" font-size="12" font-style="italic" text-anchor="start">as finalized)</text></a></g></g><g id="life_events_graph_node9" class="node"><title>tp_clear</title><g id="a_life_events_graph_node9"><a target="_top" xlink:href="typeobj.html#c.PyTypeObject.tp_clear" xlink:title="tp_clear"><ellipse cx="222.8" cy="-238.5" fill="none" stroke="#000" rx="48.34" ry="18"/><text x="222.8" y="-234.22" font-family="monospace,monospace" font-size="12" text-anchor="middle">tp_clear</text></a></g></g><g id="life_events_graph_edge12" class="edge"><title>finalized?-&gt;tp_clear</title><g id="a_life_events_graph_edge12"><a xlink:title="finalized? to tp_clear: yes"><path fill="none" stroke="#000" d="M227.56,-430.1C236.46,-423.41 244.86,-415.02 249.8,-405 277.22,-349.39 274.06,-322.55 249.8,-265.5 249.7,-265.27 249.6,-265.04 249.49,-264.81"/><polygon fill="#000" stroke="#000" points="252.41 -262.88 243.93 -256.52 246.6 -266.78 252.41 -262.88"/></a></g><g id="a_life_events_graph_edge12-label"><a xlink:title="finalized? to tp_clear: yes"><text x="269.2" y="-316.73" font-family="serif,serif" font-size="12" font-style="italic" text-anchor="start">yes</text></a></g></g><g id="life_events_graph_edge13" class="edge"><title>tp_finalize-&gt;tp_clear</title><g id="a_life_events_graph_edge13"><a xlink:title="tp_finalize to tp_clear: no refs or cyclic isolate"><path fill="none" stroke="#000" d="M130.02,-302.72C135.75,-290.85 144.8,-275.49 156.8,-265.5 161.95,-261.21 167.9,-257.57 174.07,-254.49"/><polygon fill="#000" stroke="#000" points="175.46 -257.71 183.18 -250.45 172.62 -251.31 175.46 -257.71"/></a></g><g id="a_life_events_graph_edge13-label"><a xlink:title="tp_finalize to tp_clear: no refs or cyclic isolate"><text x="164.3" y="-282.6" font-family="serif,serif" font-size="12" font-style="italic" text-anchor="start">no refs or</text><text x="156.8" y="-268.35" font-family="serif,serif" font-size="12" font-style="italic" text-anchor="start">cyclic isolate</text></a></g></g><g id="life_events_graph_edge14" class="edge"><title>tp_finalize-&gt;tp_dealloc</title><g id="a_life_events_graph_edge14"><a target="_top" xlink:href="lifecycle.html#c.PyObject_CallFinalizerFromDealloc" xlink:title="tp_dealloc to tp_finalize: recommended call (see explanation)"><path fill="none" stroke="#000" stroke-dasharray="5 2" d="M85.85,-298.52C42.09,-270.18 -21.4,-218.11 7.8,-168.75 36.22,-120.7 99.95,-100.97 146.42,-92.87"/><polygon fill="none" stroke="#000" points="83.78 -301.35 94.11 -303.72 87.52 -295.43 83.78 -301.35"/></a></g><g id="a_life_events_graph_edge14-label"><a target="_top" xlink:href="lifecycle.html#c.PyObject_CallFinalizerFromDealloc" xlink:title="tp_dealloc to tp_finalize: recommended call (see explanation)"><text x="7.8" y="-200.1" font-family="serif,serif" font-size="12" font-style="italic" text-anchor="start">recommended</text><text x="25.8" y="-185.85" font-family="serif,serif" font-size="12" font-style="italic" text-anchor="start">call (see</text><text x="13.05" y="-171.6" font-family="serif,serif" font-size="12" font-style="italic" text-anchor="start">explanation)</text></a></g></g><g id="life_events_graph_edge15" class="edge"><title>tp_finalize-&gt;tp_dealloc</title><g id="a_life_events_graph_edge15"><a xlink:title="tp_finalize to tp_dealloc: no refs"><path fill="none" stroke="#000" d="M123.03,-302.58C123.95,-273.77 128.08,-214.78 146.05,-168.75 153.95,-148.5 167.56,-128.2 179.24,-112.92"/><polygon fill="#000" stroke="#000" points="181.81 -115.32 185.25 -105.3 176.31 -110.98 181.81 -115.32"/></a></g><g id="a_life_events_graph_edge15-label"><a xlink:title="tp_finalize to tp_dealloc: no refs"><text x="146.05" y="-185.85" font-family="serif,serif" font-size="12" font-style="italic" text-anchor="start">no refs</text></a></g></g><g id="life_events_graph_edge17" class="edge"><title>tp_clear-&gt;uncollectable</title><g id="a_life_events_graph_edge17"><a xlink:title="tp_clear to uncollectable: cyclic isolate"><path fill="none" stroke="#000" d="M227.75,-220.38C232.99,-205 242.67,-182.74 258.05,-168.75 260.43,-166.58 263.02,-164.58 265.74,-162.73"/><polygon fill="#000" stroke="#000" points="267.27 -165.89 274.12 -157.81 263.73 -159.86 267.27 -165.89"/></a></g><g id="a_life_events_graph_edge17-label"><a xlink:title="tp_clear to uncollectable: cyclic isolate"><text x="260.67" y="-192.97" font-family="serif,serif" font-size="12" font-style="italic" text-anchor="start">cyclic</text><text x="258.05" y="-178.72" font-family="serif,serif" font-size="12" font-style="italic" text-anchor="start">isolate</text></a></g></g><g id="life_events_graph_edge16" class="edge"><title>tp_clear-&gt;tp_dealloc</title><g id="a_life_events_graph_edge16"><a xlink:title="tp_clear to tp_dealloc: no refs"><path fill="none" stroke="#000" d="M219.7,-220.24C216.92,-204.51 212.83,-180.61 209.8,-159.75 207.7,-145.34 205.67,-129.26 204.07,-115.92"/><polygon fill="#000" stroke="#000" points="207.56 -115.59 202.91 -106.07 200.61 -116.41 207.56 -115.59"/></a></g><g id="a_life_events_graph_edge16-label"><a xlink:title="tp_clear to tp_dealloc: no refs"><text x="209.8" y="-137.22" font-family="serif,serif" font-size="12" font-style="italic" text-anchor="start">no refs</text></a></g></g><g id="life_events_graph_node12" class="node"><title>tp_free</title><g id="a_life_events_graph_node12"><a target="_top" xlink:href="typeobj.html#c.PyTypeObject.tp_free" xlink:title="tp_free"><ellipse cx="200.8" cy="-18" fill="none" stroke="#000" rx="43.57" ry="18"/><text x="200.8" y="-13.72" font-family="monospace,monospace" font-size="12" text-anchor="middle">tp_free</text></a></g></g><g id="life_events_graph_edge21" class="edge"><title>tp_dealloc-&gt;tp_free</title><g id="a_life_events_graph_edge21"><a xlink:title="tp_dealloc to tp_free: direct call"><path fill="none" stroke="#000" d="M200.8,-67.84C200.8,-61.63 200.8,-54.46 200.8,-47.56"/><polygon fill="none" stroke="#000" points="204.3 -47.57 200.8 -37.57 197.3 -47.57 204.3 -47.57"/></a></g><g id="a_life_events_graph_edge21-label"><a xlink:title="tp_dealloc to tp_free: direct call"><text x="200.8" y="-47.85" font-family="serif,serif" font-size="12" font-style="italic" text-anchor="start">direct call</text></a></g></g></g></svg>